<svg xmlns="http://www.w3.org/2000/svg" xmlns:xlink="http://www.w3.org/1999/xlink" viewBox="0 0 300 300">
  <defs>
    <linearGradient id="a" x1="43.79" x2="245.85" y1="216.06" y2="51.22" gradientUnits="userSpaceOnUse">
      <stop offset=".1" stop-color="#0012c1" />
      <stop offset=".48" stop-color="#4ad3d8" />
      <stop offset=".92" stop-color="#abf4f5" />
    </linearGradient>
    <linearGradient xlink:href="#a" id="b" x1="74.03" x2="276.09" y1="253.13" y2="88.3" />
    <linearGradient xlink:href="#a" id="c" x1="77.33" x2="279.38" y1="257.17" y2="92.33" />
    <linearGradient xlink:href="#a" id="d" x1="39.05" x2="241.11" y1="210.26" y2="45.42" />
  </defs>
  <path d="M0 0h300v300H0z" style="fill:#000034" />
  <path
    d="M131.56 212.27c-.05 6.45-6.8 10.66-12.61 7.85-26.1-12.62-43.24-38.59-43.64-66.16-.45-30.62 19.16-50.65 25.18-56.06 3.61-3.24 9.17-2.94 12.41.67s2.95 9.17-.67 12.41c-4.63 4.16-19.7 19.52-19.36 42.72.24 16.26 8.24 31.85 21.22 42.58l.12-16.78c.04-4.83 3.96-8.72 8.79-8.72h.07c4.84 0 8.76 3.95 8.72 8.79l-.24 32.71Z"
    style="fill:url(#a)" />
  <path
    d="M166.94 214.52v-34.96c.01-4.85 3.95-8.79 8.8-8.79 4.85 0 8.79 3.94 8.79 8.79v19.15c14.12-11.26 22.67-27.74 22.6-44.85-.09-20.79-12.61-35.14-17.99-40.35-3.49-3.37-3.58-8.94-.21-12.43 3.38-3.49 8.94-3.58 12.43-.21 6.98 6.75 23.23 25.43 23.35 52.9.13 28.48-17.61 55.44-45.17 68.66-5.84 2.8-12.59-1.45-12.59-7.93Z"
    style="fill:url(#b)" />
  <path
    d="M149.38 241.08c-4.85 0-8.79-3.43-8.79-7.66v-70.05c0-4.23 3.93-7.66 8.79-7.66s8.79 3.43 8.79 7.66v70.05c0 4.23-3.93 7.66-8.79 7.66Z"
    style="fill:url(#c)" />
  <path
    d="M185.78 128.09c-2.26-3.98-5.08-6.82-7.53-8.79.51-7.67.69-26.73-11.3-45.2-3.51-5.41-7.39-9.72-11.03-13.1-2.98-2.77-7.61-2.77-10.59 0-3.64 3.38-7.52 7.7-11.03 13.1-11.99 18.47-11.81 37.53-11.3 45.2-2.71 2.1-6.1 5.34-8.79 10.04-3.48 6.09-4.49 12.35-4.46 17.62.03 5.72 6.12 9.44 11.24 6.89 7.02-3.49 17.16-7.01 29.63-6.94 11.63.06 21.12 3.22 27.77 6.38 4.89 2.32 10.7-.82 11.18-6.22.49-5.56-.08-12.42-3.8-18.99Zm-33.24-13.97c-7.73 1.27-14.33-5.32-13.06-13.06.77-4.68 4.55-8.46 9.23-9.23 7.73-1.27 14.32 5.32 13.06 13.06-.77 4.68-4.55 8.46-9.23 9.23Z"
    style="fill:url(#d)" />
</svg>