<?xml version="1.0" encoding="UTF-8"?>
<svg id="Capa_1" data-name="Capa 1" xmlns="http://www.w3.org/2000/svg" viewBox="0 0 196.56 239.64">
  <path d="M74.02,201.74c-.06,8.49-8.95,14.02-16.59,10.33h0C23.08,195.47.55,161.3.01,125.02-.59,84.75,25.22,58.4,33.14,51.28c4.75-4.27,12.06-3.87,16.33.88,4.27,4.75,3.88,12.06-.88,16.33-6.09,5.47-25.91,25.68-25.46,56.2.32,21.4,10.85,41.9,27.92,56.02l.16-22.07c.05-6.35,5.21-11.48,11.56-11.48h.09c6.37,0,11.52,5.19,11.48,11.56l-.32,43.03Z"/>
  <path d="M120.57,204.71v-46c.01-6.38,5.19-11.56,11.57-11.56h0c6.39,0,11.56,5.18,11.56,11.56v25.19c18.58-14.82,29.83-36.49,29.73-59-.12-27.35-16.6-46.23-23.67-53.08-4.59-4.44-4.71-11.76-.27-16.35,4.44-4.59,11.76-4.71,16.35-.27,9.18,8.88,30.56,33.45,30.72,69.6.16,37.47-23.16,72.93-59.42,90.33h0c-7.68,3.68-16.57-1.91-16.56-10.43Z"/>
  <path d="M97.46,239.64c-6.39,0-11.56-4.51-11.56-10.08v-92.15c0-5.57,5.18-10.08,11.56-10.08s11.56,4.51,11.56,10.08v92.15c0,5.57-5.18,10.08-11.56,10.08Z"/>
  <path d="M145.35,91c-2.97-5.24-6.69-8.97-9.91-11.56.68-10.09.91-35.16-14.86-59.46-4.62-7.11-9.72-12.79-14.5-17.24-3.92-3.65-10.01-3.65-13.93,0-4.79,4.45-9.89,10.13-14.5,17.24-15.77,24.3-15.54,49.37-14.86,59.46-3.57,2.76-8.03,7.02-11.56,13.21-4.58,8.01-5.9,16.25-5.87,23.18.03,7.53,8.05,12.42,14.79,9.07,9.24-4.6,22.58-9.22,38.97-9.13,15.3.08,27.79,4.24,36.54,8.39,6.44,3.05,14.08-1.08,14.71-8.18.64-7.31-.1-16.34-5-24.98ZM101.63,72.62c-10.17,1.67-18.85-7-17.18-17.18,1.01-6.16,5.98-11.13,12.14-12.14,10.17-1.67,18.85,7,17.18,17.18-1.01,6.16-5.98,11.13-12.14,12.14Z"/>
</svg>